# xmcd CD database file
#
# Track frame offsets:
#	150
#	14033
#	27540
#	39960
#	57050
#	73171
#	84892
#	98079
#	108267
#	121210
#	134523
#	150989
#
# Disc length: 2289 seconds
#
# Revision: 0
# Processed by: cddbd v1.4PL0 Copyright (c) Steve Scherf et al.
# Submitted via: CDex 1.51
#
DISCID=9308ef0c
DTITLE=Barry White - Under the Influence of Love
DYEAR=2002
DGENRE=Rhythmic Soul
TTITLE0=Under the Influence of Love
TTITLE1=I've Got the Whole World to Hold Me Up
TTITLE2=All in the Run of Love
TTITLE3=Your Heart and Soul
TTITLE4=Come on in Love
TTITLE5=Where Can I Turn To
TTITLE6=Out of the Shadows of Love
TTITLE7=I Owe It All To You
TTITLE8=Fragile-Handle with Care
TTITLE9=My Buddy
TTITLE10=Long Black Veil
TTITLE11=I've Got the Whole World to Hold Me Up (Big Man Remix)
EXTD=YEAR: 2002
EXTT0=
EXTT1=
EXTT2=
EXTT3=
EXTT4=
EXTT5=
EXTT6=
EXTT7=
EXTT8=
EXTT9=
EXTT10=
EXTT11=
PLAYORDER=
